<?xml version="1.0" encoding="utf-8"?>
<!-- Generator: Adobe Illustrator 25.4.1, SVG Export Plug-In . SVG Version: 6.00 Build 0)  -->
<svg version="1.1" id="Layer_1" xmlns="http://www.w3.org/2000/svg" xmlns:xlink="http://www.w3.org/1999/xlink" x="0px" y="0px"
	 viewBox="0 0 1024 1024" style="enable-background:new 0 0 1024 1024;" xml:space="preserve">
<style type="text/css">
	.st0{fill:#2C88EB;}
	.st1{fill:#EDC376;}
	.st2{fill:#419FF8;}
	.st3{fill:#DBAD5A;}
	.st4{fill:#E4B86A;}
	.st5{fill:#AC7B37;}
	.st6{fill:#D2A758;}
	.st7{fill:#EDC882;}
	.st8{fill:#AC2C30;}
	.st9{fill:#E7BD6C;}
	.st10{fill:#F9F9F1;}
	.st11{fill:#F7F7F1;}
	.st12{fill:#F6D98F;}
	.st13{fill:#F6F7F0;}
	.st14{fill:#D4A75C;}
	.st15{fill:#F3F2E9;}
	.st16{fill:#F4F4EC;}
	.st17{fill:#C09246;}
	.st18{fill:#F8F8F1;}
	.st19{fill:#F7F9F5;}
	.st20{fill:#A6E9F4;}
	.st21{fill:#F5D07B;}
	.st22{fill:#F4F4EE;}
	.st23{fill:#F6F5E9;}
	.st24{fill:#D2A24B;}
	.st25{fill:#EEE8D6;}
	.st26{fill:#F0F4F7;}
	.st27{fill:#F0EFE1;}
	.st28{fill:#EDF6F7;}
	.st29{fill:#F4F4F4;}
	.st30{fill:#F4F4F4;stroke:#4AABF8;stroke-width:0.25;stroke-miterlimit:10;}
</style>
<g>
	<path class="st0" d="M587.4,430.6c1.7,0.5,3.5,0.9,5.2,1.4c1,0.3,1.9,0.5,2.9,0.8c2.9,0.9,2.9,0.9,5.5,1.9c2.4,1,4.7,1.6,7.2,2.1
		c0.8,0.2,1.6,0.3,2.4,0.5c0.6,0.1,1.2,0.2,1.8,0.4c-3,9.2-12.7,16-20,22c-1,0.8-2,1.7-3,2.5c-18,14.9-37.4,27.4-58,38.5
		c-1.5,0.8-2.9,1.6-4.4,2.4c-4.2,2.3-8.4,4.4-12.6,6.6c-0.8,0.4-1.6,0.8-2.4,1.2c-17.4,8.7-35.4,15.7-53.6,22.7
		c-1.9,0.7-3.8,1.5-5.7,2.2c-7.6,2.9-15.2,5.8-22.8,8.5c-0.7,0.2-1.3,0.5-2,0.7c-3.3,1.2-6.5,2.4-9.8,3.6c-6.7,2.4-13.2,5-19.7,7.7
		c-4.9,2.1-9.9,4.1-14.9,6c-1.1,0.4-2.2,0.9-3.3,1.3c-4.8,1.9-9.7,3.9-14.5,5.7c-24.4,9.4-48.3,20.6-71.2,33.1
		c-1.6,0.9-3.2,1.7-4.8,2.6c-8.7,4.7-17,9.7-25.2,15.4c-1.3,0.9-2.6,1.8-3.9,2.6c-8,5.4-15.7,11.1-23.1,17.4c-1.1,1-2.3,1.9-3.4,2.9
		c-9.7,8.3-19.2,16.7-28.2,25.7c-7.5,7.4-15.8,14.4-24.6,20.3c-0.6,0.4-1.1,0.8-1.7,1.2c-3,1.2-5.9,0.9-9.1,0.8
		c-1.6-23.4,10.2-43.7,25-61c0.5-0.6,0.9-1.1,1.4-1.7c6.6-7.6,13.6-14.2,21.6-20.3c1.6-1.3,3.2-2.6,4.8-3.9
		c10.6-8.4,21.4-15.6,33.2-22c3-1.7,6-3.4,8.9-5.1c12.7-7.3,25.9-13.4,39.4-19.1c0.7-0.3,1.5-0.6,2.3-1c25.6-10.9,51.6-20.5,78-29.4
		c4.8-1.6,9.6-3.3,14.4-4.9c0.9-0.3,1.7-0.6,2.6-0.9c3.5-1.2,7-2.4,10.5-3.6c2.6-0.9,5.2-1.8,7.8-2.7c0.9-0.3,1.7-0.6,2.6-0.9
		c4.7-1.6,9.4-3.2,14.1-4.8c36-12.1,71.3-25.8,104.4-44.8c1.2-0.7,2.4-1.4,3.7-2.1c6.4-3.6,12.4-7.6,18.3-11.9
		c1-0.8,2.1-1.5,3.1-2.3C574.2,443.7,580.9,437.5,587.4,430.6z"/>
	<path class="st1" d="M866.4,99.6c1.5,3.9,0.6,7.3-0.4,11.2c-0.2,0.7-0.4,1.4-0.5,2.1c-2,7.4-5.4,14-9,20.8
		c-0.9,1.7-1.8,3.4-2.7,5.2c-6.2,12.3-14.9,23.7-24.3,33.7c-0.8,0.8-1.6,1.7-2.4,2.5c-6.5,6.7-13.4,12.5-20.8,18.1
		c-1.9,1.4-3.7,2.9-5.5,4.3c-33.2,26-74.7,44.3-114.3,58.1c-1.4,0.5-2.8,1-4.2,1.5c-30.3,10.7-60.8,20.3-92,28
		c-7.9,2-15.7,4.1-23.5,6.7c-0.7,0.2-1.4,0.5-2.2,0.7c-7.3,2.5-14.2,5.7-21.1,9.2c-0.7,0.3-1.4,0.7-2.1,1.1
		c-9.1,4.5-17.3,9.1-24.9,15.9c-1,0.8-1.9,1.7-2.9,2.6c-12.6,10.3-12.6,10.3-21.1,23.4c0,2,0.1,4,0.2,6c0.6,9.6,0.6,9.6-1.8,13.6
		c-1.4,1.3-2.8,2.5-4.3,3.7c-4.7,3.9-6.8,8.5-7.6,14.4c-0.3,3.4-0.4,6.9-0.5,10.3c-0.7,0-1.3,0-2,0c-2.2-26,9.1-56.1,25-76.4
		c1.3-1.6,2.7-3.1,4-4.6c1-1.2,1-1.2,2-2.4c6.3-7.4,13.5-13.5,21-19.6c0.6-0.5,1.1-0.9,1.7-1.4c20.7-17,44.2-29.2,68.2-40.9
		c0.7-0.3,1.4-0.7,2.1-1c9.3-4.5,18.7-8.8,28.2-12.9c29.8-12.8,59-26.8,88-41.2c2-1,3.9-2,5.9-2.9c12.2-6.1,24.1-12.5,35.8-19.4
		c3-1.8,6.1-3.5,9.1-5.3c31.3-18,62.4-36.4,91-58.3c0.6-0.4,1.1-0.9,1.7-1.3C862.4,103.2,864.4,101.6,866.4,99.6z"/>
	<path class="st2" d="M574.9,190.7c5.7,1.8,22.5,8.3,28.1,10.3c0,0,0,0,0.1,0c5,1.6,11,5.1,13.9,6.3c1.5,1,5,2.4,5,2.4
		c2.5,0.9,3.2,1.5,5.8,0.7c0.6-0.2,1.1-0.5,1.6-0.8c0.4-0.2,0.8-0.4,1.2-0.6c0.8-0.3,1.5-0.7,2.1-1c1.3-0.6,1.2-0.6,2.5-1.3
		c2.4-1.2,4.9-2.5,7.4-3.7c1.1-0.5,1.8-1.7,1.8-2.9v0c-1.3-1.2-2.6-2.4-4-3.5c-1-0.7-1-0.7-2-1.5c-7-5.5-14.2-10.2-22.1-14.1
		c-0.6-0.3-1.3-0.6-1.9-0.9c-70.8-34.7-153.7-37.6-224.4-1.4c-1.2,0.6-1.2,0.6-2.5,1.3c-18.5,9.4-36.5,21.8-50.9,36.7
		c-0.7,0.8-1.4,1.6-2.1,2.3c-37.2,38.5-62.8,89.5-69.7,142.8c-0.1,0.7-0.2,1.5-0.3,2.2c-3.8,29.5-2.1,59.5,4.4,88.6
		c0.2,0.8,0.4,1.6,0.6,2.4c2.8,12,6.4,23.5,11,35c3.3,0,5.9-0.8,9-1.8c0.7-0.2,1.5-0.5,2.2-0.7c2.6-0.8,5.2-1.7,7.8-2.5
		c0-3,0-3-0.9-5.6c-1.1-2.7-2.2-5.4-3.2-8.1c-0.3-0.8-0.6-1.6-0.9-2.3c-3.6-9.1-6.1-17.9-7.5-27.6c-0.1-0.7-0.2-1.4-0.3-2.1
		c-1.8-12.9-2.6-25.7-2.6-38.8v-2.8c0-14.9,1.2-29,4.4-43.6c0.2-1.1,0.5-2.2,0.7-3.3c2.2-10.2,4.9-20,8.5-29.8
		c0.2-0.6,0.5-1.3,0.7-1.9c6.5-18.3,15.9-36,26.8-52.1c0.5-0.7,0.9-1.3,1.3-1.9c11-16.2,24.8-30.3,40-42.6l3-2.4
		c18.2-14.8,39.8-25.6,62-33.3c1-0.4,1-0.4,2-0.7c20.6-7,41.1-9.7,62.7-9.4c2.2,0.1,4.4,0.1,6.6,0.1h4.2c1.6,0,4,0,5.6,0
		c0.1,0,0.1,0,0.2,0c11,0.2,25.7,3.4,32.3,5.3L574.9,190.7z"/>
	<path class="st3" d="M635.4,445.6c2.8-0.3,2.8-0.3,6.3-0.3c1.3,0,2.5,0,3.8,0c2,0,2,0,4,0.1c1.3,0,2.7,0,4,0c3.3,0,6.6,0.1,9.9,0.1
		c-10.6,29.5-41.3,51.3-66,69c-1.1,0.8-2.1,1.5-3.2,2.3c-37.3,26.4-79.3,44.1-121.3,61.4c-12.2,5-24.4,10.2-36.5,15.6
		c-4.5,2-9,3.9-13.5,5.9c-29.4,12.6-57.4,26.7-84.6,43.8c-0.7,0.4-1.4,0.8-2,1.3c-7.8,5-14.9,10.1-21.5,16.6
		c-5.9,5.1-11.2,5.7-18.8,5.7c-0.9,0-1.9,0-2.8,0c-6.2-0.2-10.6-0.9-15.4-5c-2-2.3-3.3-4.1-3.9-7.2c1.9-13.3,15.5-23.6,25.5-31.3
		c1.4-1.1,1.4-1.1,2.8-2.2c41.5-32.5,99.8-49.6,148.8-67.9c24.5-9.2,48.8-18.5,72.4-29.9c1.1-0.5,2.2-1.1,3.3-1.6
		C563.1,504.3,612.1,480.5,635.4,445.6z"/>
	<path class="st2" d="M549.4,419.6c0.9,0.2,0.9,0.2,1.9,0.3c4.4,0.8,8.8,1.7,13.1,2.7c-35.3,43.8-101.6,62.1-152.7,79.2
		c-1.6,0.5-3.1,1-4.7,1.6c-9.3,3.1-18.7,6.2-28.2,8.9c-6,1.8-11.9,3.8-17.7,6c-3.7,1.3-7.4,2.6-11.1,3.8
		c-26.4,8.9-52.2,19-77.6,30.5c-1.8,0.8-1.8,0.8-3.6,1.6c-33.1,14.9-65.6,32.8-94.5,55c-4.7,3.6-9.5,6.8-14.4,9.9
		c-0.7,0.4-1.4,0.9-2.1,1.3c-5,3.1-5,3.1-8.3,3.1c-0.3-6.4,0.7-11.4,2.7-17.4c0.4-1.3,0.4-1.3,0.8-2.5
		c10.6-31.5,39.5-51.4,67.4-66.9c1.4-0.8,2.7-1.5,4.1-2.3c11.2-6.4,22.8-11.2,34.8-15.7c3.3-1.2,6.5-2.4,9.7-3.7
		c32.2-12.2,65.3-21.8,98.4-31c1.7-0.5,1.7-0.5,3.4-1c5.4-1.5,10.7-2.8,16.2-4.1c6.1-1.4,12-3.1,17.9-4.9c1-0.3,2-0.6,3-0.9
		c2.8-0.9,5.6-1.7,8.5-2.6c2.2-0.7,4.5-1.4,6.7-2.1c1-0.3,2-0.6,3-0.9c2.5-0.8,5-1.5,7.5-2.2c31.6-9.2,31.6-9.2,61.8-21.8
		c1.1-0.5,2.2-1.1,3.3-1.6c3.3-1.6,6.5-3.2,9.8-4.8c1.3-0.6,2.6-1.3,3.9-1.9c7.8-3.8,15.2-7.9,22.3-12.8
		C539.9,419,543.4,418.5,549.4,419.6z"/>
	<path class="st4" d="M874.4,167.6c1.6,19.6-8.3,41.2-19,57c-0.7,1.1-0.7,1.1-1.5,2.2c-26.4,36.4-74.2,57.2-115.5,70.8
		c-0.8,0.3-1.7,0.6-2.6,0.9c-43.1,14.5-87.5,21.8-132.7,25.8c-33.2,3-66.1,7.7-94.5,26.2c-1.1,0.6-1.1,0.6-2.2,1.2
		c-0.7-0.3-1.3-0.7-2-1c19-25.9,46.1-37.8,76-47c1.1-0.3,1.1-0.3,2.2-0.7c4.9-1.5,9.9-2.9,14.8-4.3c0.9-0.3,1.8-0.5,2.8-0.8
		c9.5-2.7,19-5.3,28.5-7.9c14.7-4,29.2-8.5,43.7-13.3c0.9-0.3,1.9-0.6,2.8-0.9c6.1-2,12.1-4,18.2-6.1c0.7-0.2,1.4-0.5,2.2-0.7
		c17.9-6.2,35.4-13.8,52.8-21.3c1.6-0.7,1.6-0.7,3.2-1.4C793.9,228.2,840,202.6,872,169C873.4,167.6,873.4,167.6,874.4,167.6z"/>
	<path class="st5" d="M715.4,438.6c-0.6,4.6-2.5,8.4-4.6,12.5c-0.4,0.7-0.7,1.4-1.1,2.1c-0.7,1.4-1.5,2.9-2.2,4.3
		c-0.9,1.8-1.9,3.6-2.8,5.4c-9.7,18.6-22.5,35.8-36.8,51c-2.1,2.2-4,4.4-6,6.7c-7.4,8.5-15.5,16-24.4,22.9c-0.8,0.6-1.5,1.2-2.3,1.8
		c-2.7,2.1-5.4,4.2-8.1,6.2c-0.9,0.7-1.7,1.3-2.6,2c-29.9,22.8-64.4,40.6-99,54.9c-5.7,2.3-11.2,4.9-16.8,7.5
		c-8,3.7-16,7.3-24.1,10.8c-8.5,3.7-16.9,7.6-25.1,11.9c-1.9,1-3.8,1.9-5.7,2.8c-7.6,3.7-15,7.6-22.4,11.7c-0.9,0.5-1.7,0.9-2.6,1.4
		c-3.6,2-7.2,4-10.5,6.3c-9.1,6.2-17.1,5.1-27.5,3.2c-1.3-0.3-1.3-0.3-2.7-0.5c-9.6-1.8-19.7-1.1-29.4-0.9
		c16.3-16.4,33.3-27.7,54-38c0.6-0.3,1.2-0.6,1.8-0.9c18.8-9.4,37.8-18,57.2-26.2c6.1-2.6,12.2-5.2,18.3-7.8c2.2-1,4.4-1.9,6.7-2.8
		c7.4-3.2,14.8-6.4,22.1-9.8c2.1-1,4.2-1.9,6.4-2.8c3.6-1.5,7.1-3.2,10.7-4.9c0.7-0.3,1.3-0.6,2-1c15.2-7.3,30.1-14.8,44.5-23.3
		c2.1-1.3,4.3-2.5,6.5-3.7c10.1-5.8,19.5-12.7,28.9-19.7c0.6-0.5,1.2-0.9,1.9-1.4c17.6-13.2,34.9-27.7,49.3-44.5
		c1.3-1.5,2.6-2.9,4-4.3c5.2-5.5,9.4-11.3,13.5-17.6c4.1-6.4,7.2-9.6,14.9-11.3C705.5,441.4,710.7,438.6,715.4,438.6z"/>
	<path class="st6" d="M855.4,263.6c-10.9,34.8-34.1,61.7-66.2,78.6c-22.9,11.6-47.6,18.2-72.8,22.4c-0.8,0.1-1.6,0.3-2.4,0.4
		c-32.9,5.7-65.8,5.2-99,3.1c-15.9-1-31.7-1.8-47.6-1.9c-0.8,0-1.6,0-2.4,0c-14.4-0.1-29,1.2-42.7,6c-0.7,0.2-1.4,0.5-2.2,0.7
		c-6.3,2.2-12,5.3-17.7,8.8c-1.6,1-3.3,1.9-4.9,2.8c-0.7-0.3-1.3-0.7-2-1c19.7-27,49.2-35.4,80.7-40.5c15-2.3,30.1-3.9,45.2-5.4
		c21.2-2.2,42.2-5.3,63.1-9.1c0.7-0.1,1.4-0.2,2.1-0.4c9-1.6,18-3.4,27-5.5c1.1-0.3,2.2-0.5,3.4-0.8c7.3-1.7,14.3-3.7,21.4-6.2
		c3-1.1,6-2,9.1-2.9c10.9-3.3,21.5-7.3,32.1-11.2c0.7-0.3,1.4-0.5,2.2-0.8c23.9-8.9,49.7-20.1,70-35.9
		C853.4,263.6,853.4,263.6,855.4,263.6z"/>
	<path class="st7" d="M582.4,132.6c0.8,0.2,1.6,0.5,2.5,0.8c9.7,3,18.6,6.5,27.5,11.2c2,1,3.9,1.9,5.9,2.9
		c15.4,7.5,31.9,16.2,44.4,28.4c0.6,0.6,1.1,1.4,1.1,2.3c0,0.7-0.1,1.2-0.7,1.6c-1.1,0.6-2.2,1.3-3.3,1.9c-0.6,0.3-1.1,0.7-1.7,1
		c-0.2,0.1-0.5,0.2-0.7,0.3c-3,0.9-5.1,0.6-7.9,0c-0.7-0.2-1.4-0.4-2-0.8c-2.8-1.6-5.5-3.4-8.2-5.3c-22.6-15.3-45.9-25.5-71.9-33.3
		c-0.8-0.2-1.5-0.5-2.3-0.7c-20.2-6.2-40.6-8.9-61.7-9.3c-0.9,0-1.8,0-2.7-0.1c-64.1-1.4-130.1,18.7-177.5,63.4
		c-1.6,1.6-3.2,3.1-4.9,4.7c-0.6,0.6-1.2,1.2-1.8,1.8c-8.4,8-16,16.2-22.9,25.6c-1.2,1.6-2.4,3.2-3.6,4.8
		c-25.5,34.3-42.3,73.8-50.6,115.8c-0.2,0.8-0.3,1.7-0.5,2.5c-9.1,45.1-3.8,94.4,10.4,137.8c0.5,1.5,0.9,3,1.3,4.6
		c0.6,2.4-0.6,4.9-2.8,6l-0.6,0.3c-0.8,0.4-1.6,0.8-2.4,1.2c0,0,0,0,0,0c-2.9,1-3,1-4.5,0.3c0,0-0.1,0-0.1,0c-3-2.6-3.7-6.2-4.8-9.9
		c-0.3-0.8-0.5-1.7-0.8-2.6c-0.5-1.8-1.1-3.6-1.6-5.4c-0.8-2.7-1.6-5.4-2.4-8.1c-7.3-24.9-10.9-50.9-10.8-76.8c0-0.8,0-1.6,0-2.5
		c0.2-45.6,11.1-91,32.4-131.4c0.4-0.8,0.8-1.6,1.2-2.4c11.2-21.2,24.4-41.1,40.8-58.6c1.1-1.3,2.2-2.5,3.2-3.8c0,0,0,0,0,0
		c8.4-9.6,17.6-18.4,27.8-26.2c0.6-0.4,1.1-0.8,1.7-1.3c33.5-25.5,72.9-43,114.3-50.7c1-0.2,2.1-0.4,3.1-0.6
		C491.1,113.7,537.4,118.9,582.4,132.6z"/>
	<path class="st8" d="M749.4,422.6c1,0.3,2,0.7,3,1c0.2,5.7-0.5,10.5-2,16c-0.3,1.2-0.5,2.3-0.8,3.5c-4.1,17.2-9.2,33.7-17.2,49.5
		c-0.6,1.3-1.2,2.6-1.9,3.9c-7.1,14.6-15.1,28.3-25.1,41.1c-0.8,1.1-1.6,2.2-2.5,3.3c-4.5,6-9.3,11.8-14.4,17.4
		c-2.1,2.3-4.2,4.7-6.2,7c-3.1,3.5-6.3,6.5-9.9,9.5c-2.2,1.9-4.2,4-6.2,6c-10,10.1-21.7,17.9-33.7,25.4c-2.2,1.4-4.4,2.8-6.5,4.2
		c-15,9.5-30.7,17-47.4,23c-2.6,1-4.9,2-7.3,3.3c-25.4,13.2-58.8,17.6-87,16.9c6.3-14.4,31.4-21.5,45-27.3c8-3.4,15.8-7,23.5-10.9
		c3.2-1.6,6.3-3.1,9.6-4.6c14.8-6.8,29-14.8,43-23.2c1.1-0.6,2.2-1.3,3.3-1.9c24.4-14.8,45.9-32.2,66.1-52.2
		c1.3-1.3,1.3-1.3,2.6-2.6c21.5-21.5,38.2-47.1,51-74.6c2.4-5.1,4.8-10.2,7.4-15.3c0.3-0.6,0.6-1.3,1-2
		C739.9,432.3,743.3,426.9,749.4,422.6z"/>
	<path class="st9" d="M410.3,296.7c0.7,0.2,1.5,0.3,2.2,0.5c2,0.6,2,0.6,3.9-0.6c15-1.2,26.4,1.5,38.6,10.9
		c8.4,7.2,12.4,14.1,13.4,25.1c0,5.9-1.5,11.6-2.7,17.4c-0.6,2.7-1.1,5.3-1.7,8c-0.1,0.7-0.3,1.3-0.4,2c-1.8,8.5-3,17.1-4.2,25.7
		c-0.3,0-0.7,0-1,0c-0.2-1.3-0.3-2.6-0.5-3.9c-1.4-10.6-3.3-20.2-7.5-30.1c-0.5-1.2-0.5-1.2-1-2.5c-1.9-4.3-4-7-8-9.5
		c-1.3-0.4-2.7-0.7-4-1c0.1,1.4,0.2,2.8,0.4,4.1c0.1,1.1,0.1,1.1,0.2,2.3c0.3,2.6,0.3,2.6,1.4,5.1c1.5,5.3,1.4,10.5,1.5,16
		c0.7,22.6,3.8,43.6,20.5,60.5c2.3,1.7,4.6,3.3,7,4.7c2,1.2,3.4,2.6,5,4.3c-1.1,0.3-2.2,0.7-3.4,1c-1.5,0.4-3,0.9-4.5,1.3
		c-1.2,0.3-1.2,0.3-2.4,0.7c-4,1.2-8,2.4-11.9,3.7c-8.2,2.8-16.5,3.4-24.6,0.4c-5.4-2.9-8.9-7.8-11.1-13.4
		c-4.2-13.9-3.1-30-0.6-44.2c2.6-15.3,4-30.5-5.2-43.8c-1.1-1.3-2.1-2.5-3.2-3.8c-0.8-0.9-0.8-0.9-1.6-1.8
		c-5.8-5.8-13.1-8.4-20.5-11.4c-10.9-4.5-10.9-4.5-14-8.5c-1-2.3-1-2.3-1-4.3c1-0.2,2-0.3,3.1-0.5c10.6-1.8,21.2-3.6,29.1-11.4
		C404.6,296.8,406.1,296.2,410.3,296.7z"/>
	<path class="st10" d="M866.4,99.6c1.7,4.1,0.3,7.8-0.8,11.9c-0.2,0.7-0.3,1.4-0.5,2.1c-1.1,4.3-2.6,8.1-4.7,12c-1,0-2,0-3,0
		c0,0.7,0,1.3,0,2c-0.9,0.3-1.8,0.5-2.7,0.8c-6.5,2.3-12.4,6.4-17.6,10.9c-2.5,2.1-4.9,3.6-7.7,5.1c-2.5,1.5-4.7,3.1-7,4.8
		c-4.5,3.3-9.1,6.5-13.8,9.6c-0.9,0.6-0.9,0.6-1.9,1.2c-3.5,2.3-7,4.4-10.6,6.4c-4.2,2.4-8.1,5.2-12.1,7.8c-4.8,3.2-9.8,6-14.8,8.7
		c-4.7,2.6-9.3,5.3-13.9,8c-0.9,0.5-1.8,1.1-2.8,1.6c-5.4,3.2-5.4,3.2-10.8,6.4c-5.4,3.3-10.8,6.2-16.5,8.8
		c-6.1,2.8-12.1,5.7-18,8.8c-6.1,3.1-12.3,5.8-18.6,8.3c-5.9,2.4-11.7,5-17.4,7.8c-9.8,4.6-20,8.3-30.2,12
		c-11.4,4.1-22.7,8.4-33.9,12.9c-5.5,2.2-11,4.2-16.5,6.2c-28.2,10.6-57.8,24.1-78.9,46.4c-2.3,2.5-2.3,2.5-5.3,2.5
		c-0.5,1-0.5,1-1,2c2-10.4,15.3-18.6,23-25c0.6-0.5,1.2-1,1.8-1.5c20.6-17,44.1-29.2,68.1-40.8c0.7-0.3,1.4-0.7,2.1-1
		c9.3-4.5,18.7-8.8,28.2-12.9c29.8-12.8,59-26.8,88-41.2c2-1,3.9-2,5.9-2.9c12.2-6.1,24.1-12.5,35.8-19.4c3-1.8,6.1-3.5,9.1-5.3
		c31.3-18,62.4-36.4,91-58.3c0.6-0.4,1.1-0.9,1.7-1.3C862.4,103.2,864.4,101.6,866.4,99.6z"/>
	<path class="st11" d="M874.4,167.6c0.5,7.8,0.5,17.8-4.7,24.1c-2.6,2.2-5.4,4-8.3,5.9c-2.5,1.8-5,3.7-7.5,5.5s-5,3.7-7.5,5.5
		c-0.8,0.6-0.8,0.6-1.7,1.2c-3.9,2.8-3.9,2.8-7.3,2.8c0,0.7,0,1.3,0,2c-2.1,1.6-4.3,3.1-6.5,4.5c-0.7,0.4-1.4,0.9-2.1,1.3
		c-2.1,1.4-4.3,2.8-6.4,4.2c-1,0.6-1,0.6-2,1.3c-15.3,10-31.5,18.2-48.1,25.8c-1.8,0.8-3.6,1.7-5.4,2.6
		c-36.5,17.4-74.3,30.2-113.5,40.3c-1.2,0.3-2.4,0.6-3.6,0.9c-12.7,3.3-25.3,6.5-38.2,8.7c-15.1,2.6-30,5.7-44.9,9.4
		c-5.8,1.5-11.4,2.5-17.4,3c2.3-2.5,4.2-3.7,7.4-4.9c0.9-0.3,1.7-0.7,2.6-1c0.9-0.3,1.8-0.7,2.8-1c0.9-0.4,1.9-0.7,2.9-1.1
		c6.2-2.3,12.5-4.3,18.9-6.1c3.9-1.1,7.7-2.3,11.5-3.5c5.4-1.7,10.9-3.2,16.4-4.6c7.2-1.8,14.4-4,21.6-6.1c2-0.6,4.1-1.2,6.1-1.7
		c8.9-2.5,17.6-5.2,26.4-8.1c1.3-0.4,2.7-0.9,4-1.3c26.7-8.6,52.6-18.7,78.4-29.7c1.6-0.7,1.6-0.7,3.2-1.4
		c42.3-18.1,88.4-43.7,120.4-77.3C873.4,167.6,873.4,167.6,874.4,167.6z"/>
	<path class="st12" d="M476.4,231.6c-0.5,5.1-2.3,8.8-5.1,13c-0.4,0.6-0.8,1.2-1.2,1.9c-8.3,12.3-22,16.2-35.7,20.1
		c1.1,0.3,2.2,0.6,3.3,0.8c12.7,3.4,25.3,7.5,33.7,18.2c1.1,1.3,1.1,1.3,2.2,2.7c5.6,7.5,6.9,13.1,5.8,22.3
		c-3.2-2.7-6.4-5.4-9.4-8.3c-10.5-10.2-22.4-16.1-36.6-19.7c-0.7-0.2-1.3-0.4-2-0.5c-23.5-6.3-42.9-2.9-65.3,5.8
		c-6,2.3-10.7,3.7-17.1,2.2c-2.1-1.8-2.7-3.5-2.9-6.3c1-8.2,7.2-15,13.3-20.1c18.4-13,40-16.3,61.9-18.8c17.5-2,34.5-4.6,50.6-12.2
		C474.4,231.6,474.4,231.6,476.4,231.6z"/>
	<path class="st13" d="M855.4,263.6c-1.8,6.2-4.2,12.1-6.9,17.9c-0.3,0.8-0.7,1.5-1,2.3c-2.5,5.4-2.5,5.4-5.5,7.2
		c-2.8,0.6-5.6,1.2-8.4,1.7c-6,1.4-11.2,3.7-16.6,6.5c-8.5,4.4-17.4,7.9-26.3,11.4c-1.9,0.8-3.8,1.6-5.7,2.4
		c-58.5,24.5-121.8,33.3-184.7,34c-13.3,0.2-26.4,0.6-39.7,2.1c-3.4,0.4-6.8,0.5-10.3,0.4c0.5-1,0.5-1,1-2c2.2-0.6,2.2-0.6,5.1-1.1
		c1.1-0.2,2.2-0.4,3.3-0.6c1.2-0.2,2.4-0.4,3.6-0.6c1.3-0.2,2.5-0.4,3.8-0.7c17.9-3.1,36-5,54-6.9c21.2-2.2,42.2-5.3,63.2-9.1
		c0.7-0.1,1.4-0.2,2.1-0.4c9-1.6,18-3.4,27-5.5c1.1-0.3,2.2-0.5,3.4-0.8c7.3-1.7,14.3-3.7,21.4-6.2c3-1.1,6-2,9.1-2.9
		c10.9-3.3,21.5-7.3,32.1-11.2c0.7-0.3,1.4-0.5,2.2-0.8c23.9-8.9,49.7-20.1,70-35.9C853.4,263.6,853.4,263.6,855.4,263.6z"/>
	<path class="st14" d="M380.4,342.6c7.8,3.5,14.8,10.3,18.2,18.1c3.1,11.5,0.3,23.7-2.8,34.9c-4.2,15.7-7.9,37.1,0.5,52
		c1.9,2.7,3.9,5.4,6,8c-3.3,0.8-6.6,1.6-9.9,2.4c-0.9,0.2-1.8,0.5-2.8,0.7c-6.1,1.5-12.1,2.4-18.3,2.9c-8.2-15.3-8.2-15.3-9-24
		c-0.1-0.9-0.2-1.8-0.3-2.8c-0.9-16.6,5.2-31.8,12.2-46.5c5.8-12.2,12.7-28.3,8.3-41.9C381.9,344.6,381.9,344.6,380.4,342.6z"/>
	<path class="st15" d="M634.4,447.6c0,6.3-5.9,12.6-9.9,17.2c-1.7,1.7-3.4,3.3-5.1,4.8c-0.8,0.8-1.6,1.6-2.4,2.4
		c-0.9,0.9-1.7,1.7-2.6,2.6c-0.6,0.6-1.2,1.3-1.9,2c-9.5,9.9-20.6,17.7-32.1,25c-0.6,0.4-1.2,0.8-1.9,1.2
		c-16.6,10.5-33.8,20.2-51.7,28.3c-2.3,1-4.5,2.1-6.7,3.1c-9.2,4.5-18.6,8.1-28.1,11.7c-6.3,2.4-12.5,4.9-18.8,7.5
		c-3.9,1.6-7.8,3.1-11.8,4.5c-1.2,0.4-1.2,0.4-2.5,0.9c-4,1.4-7.9,2.9-11.9,4.2c-15.2,5.2-30,11.1-45,16.9
		c-5.8,2.3-11.6,4.5-17.5,6.7c-9.2,3.5-18.3,7.1-27.3,11c-4.8,2.1-9.6,4-14.5,5.9c-18.1,7.1-34.4,15.5-49.4,28
		c-0.7-0.3-1.6-0.9-2.3-1.2c32.4-30.7,79.9-49.2,121.3-62.8c1.9-0.8,4.6-1.6,6.5-2.3c11-4.4,21.2-7.6,32.2-11.8
		c24.5-9.2,48.8-18.5,72.4-29.9c1.1-0.5,2.2-1.1,3.3-1.6C566.8,502.6,603.1,479.5,634.4,447.6z"/>
	<path class="st16" d="M684.4,456.6c1,3,1,3-0.2,5.5c-6.3,10.5-13.1,19.9-21.5,28.9c-2,2.1-3.9,4.3-5.7,6.6
		c-43.2,49.5-110.5,78.3-170.1,101.3c-6.1,2.4-12.1,4.9-18.1,7.6c-3.1,1.4-6.3,2.6-9.5,3.7c-17.1,6.3-33.8,13.8-50.4,21.3
		c-3,1.4-6,2.7-9,3.9c-7.2,3-13.9,6.3-20.4,10.7c-2,1.3-4.2,2.4-6.4,3.5c10.6-11.7,25.3-18.1,39.2-25c0.6-0.3,1.2-0.6,1.8-0.9
		c18.8-9.4,37.8-18,57.2-26.2c6.1-2.6,12.2-5.2,18.3-7.8c2.2-1,4.4-1.9,6.7-2.8c7.4-3.2,14.8-6.4,22.1-9.8c2.1-1,4.2-1.9,6.4-2.8
		c3.6-1.5,7.1-3.2,10.7-4.9c0.7-0.3,1.3-0.6,2-1c15.2-7.3,30.1-14.8,44.5-23.3c2.1-1.3,4.3-2.5,6.5-3.7
		c10.1-5.8,19.5-12.7,28.9-19.7c0.6-0.5,1.2-0.9,1.9-1.4c17.6-13.2,34.9-27.7,49.3-44.4c2.1-2.4,4.3-4.8,6.5-7.2
		C678.5,464.7,681.5,460.9,684.4,456.6z"/>
	<g>
		<path class="st17" d="M773.4,372.6c-1.7,10-11.6,17.9-19,24c-0.7,0.7-1.5,1.3-2.3,2c-24,20.6-60,27.9-90.7,27
			c-4.5-0.4-9-1-13.5-1.6c-1.3-0.2-2.5-0.4-3.8-0.5c-21.7-3.2-42.9-8.2-64-14c-27.3-7.5-57.2-10.4-82.9,4.1c-4.5,2.7-8.7,5.7-12.8,9
			c1.5-5.2,4.9-8.5,8.6-12.3c0.6-0.7,1.3-1.3,1.9-2c1.8-1.9,3.7-3.8,5.5-5.7c1.2-1.3,1.2-1.3,2.4-2.5c16.9-16.5,43.6-17.7,65.7-17.6
			c1.3,0,1.3,0,2.7,0c11.3,0,22.4,0.2,33.6,1.4c6.5,0.7,13,1.1,19.5,1.4c1.5,0.1,1.5,0.1,3.1,0.1c11.5,0.4,23,0.5,34.5,0.5
			c3.6,0,7.2,0,10.8,0c14.3,0,28.4-0.6,42.7-2.2c1.3-0.1,2.6-0.3,3.9-0.4c3.3-0.4,6.6-0.8,9.9-1.3c1.2-0.2,2.3-0.3,3.5-0.5
			C745.9,379.4,760.5,372.6,773.4,372.6z"/>
		<path class="st18" d="M773.4,372.6c-0.6,3.9-2.5,6.4-4.9,9.6c-1,1.4-1,1.4-2.1,2.9c-4.2,5.4-4.2,5.4-7.4,6.1
			c-0.9,0.1-1.8,0.1-2.8,0.2s-2,0.1-3.1,0.2c-1.6,0.1-1.6,0.1-3.3,0.2c-2.2,0.2-4.4,0.3-6.6,0.5c-1,0.1-2,0.1-3,0.2
			c-3.9,0.4-7.8,1-11.7,1.8c-16.3,2.5-32.8,2.9-49.3,2.8c-1,0-2,0-3.1,0c-15.9,0-31.5-0.8-47.2-2.8c-4-0.5-7.9-1-11.9-1.4
			c-12.9-1.5-25.7-3.1-38.3-6.2c-6.3-1.5-12.4-2.1-18.8-2.4c-0.8,0-1.7-0.1-2.5-0.1c-2-0.1-4.1-0.2-6.1-0.3c0-0.3,0-0.7,0-1
			c37.9-0.4,37.9-0.4,53.3,1.2c6.5,0.7,13,1.1,19.6,1.4c1,0,2,0.1,3.1,0.1c11.5,0.4,23,0.5,34.5,0.5c3.6,0,7.2,0,10.8,0
			c14.3,0,28.4-0.6,42.7-2.2c1.3-0.1,2.6-0.3,3.9-0.4c3.3-0.4,6.6-0.8,9.9-1.3c1.2-0.2,2.3-0.3,3.5-0.5
			C745.9,379.4,760.5,372.6,773.4,372.6z"/>
	</g>
	<path class="st19" d="M476.4,231.6c-0.5,4.8-1.8,7.8-4.4,11.8c-0.6,1-1.2,1.9-1.9,2.9c-1.7,2.3-1.7,2.3-3.7,3.3c0-0.7,0-1.3,0-2
		c-4.3,1.1-8.3,2.5-12.4,4.1c-12.5,5-25.3,7.3-38.6,9.7c-26.4,3.3-26.4,3.3-50,14.2c-0.7,1-1.3,2-2,3c-0.7,0-1.3,0-2,0
		c-1,2.5-1,2.5-2,5c-0.7,0-1.3,0-2,0c-0.3,2-0.5,5-0.8,7c-2.1,0.3-4.9,0.1-6.9-0.3c-1,0-2.6-1.7-2.9-3.1c0,0-0.7-2-0.6-2.8
		c0.3-8.1,5.8-13.8,11.6-19.4c17.7-14.5,41.5-17.6,63.5-20.1c17.5-2,34.5-4.6,50.6-12.2C474.4,231.6,474.4,231.6,476.4,231.6z"/>
	<path class="st20" d="M578.4,439.6c1,0.3,2,0.7,3,1c-1.1,1.3-2.2,2.7-3.4,4c-0.6,0.7-1.3,1.5-1.9,2.2c-0.9,0.9-0.9,0.9-1.7,1.8
		c-0.7,0-1.3,0-2,0c-0.3,1-0.7,2-1,3c-1.8,1.6-3.6,3.1-5.6,4.6c-0.6,0.4-1.2,0.9-1.8,1.3c-22.1,16.4-47.3,28.6-72.7,39.1
		c-1,0.4-2,0.8-3,1.3c-13.5,5.7-27.3,10.6-41.2,15.2c-7.1,2.3-14.1,4.7-21.1,7.4c-6.2,2.3-12.4,4.3-18.7,6.1
		c-16.6,4.7-32.8,10.6-49,16.4c-2,0.7-3.9,1.4-5.9,2.1c-16.5,5.7-33,11.7-49,18.6c-3.2,1.4-6.4,2.7-9.6,4.1
		c-1.2,0.5-1.2,0.5-2.5,1.1c-4.1,1.7-8.3,3.4-12.4,5.1c-4.3,1.7-8.3,3.8-12.4,6c-0.7,0.3-1.3,0.6-2,0.9c-0.7-0.3-1.3-0.7-2-1
		c4.9-3.3,10-6.1,15.3-8.7c0.7-0.3,1.4-0.7,2.1-1.1c7.3-3.6,14.6-7,22-10.3c0.7-0.3,1.4-0.6,2.2-1c26.5-11.7,53.9-21.4,81.3-30.6
		c4.6-1.6,9.2-3.1,13.8-4.7c0.9-0.3,1.7-0.6,2.6-0.9c3.5-1.2,7.1-2.4,10.6-3.6c2.6-0.9,5.3-1.8,7.9-2.7c0.9-0.3,1.7-0.6,2.6-0.9
		c4.7-1.6,9.4-3.2,14.2-4.8c36-12.1,71.3-25.8,104.3-44.8c1.2-0.7,2.4-1.4,3.7-2.1C556.6,457,568.9,449.1,578.4,439.6z"/>
	<path class="st21" d="M343.4,301.6c0.2,0.8,0.4,1.5,0.6,2.3c3,10.3,6.9,15.9,16.3,21.2c1.7,0.8,3.4,1.7,5.1,2.5
		c-3.4,1.9-6.9,2.8-10.8,3.8c-9.4,2.6-9.4,2.6-16.4,9c-1.1,2.9-1.3,5.5-1.5,8.5c-0.1,1.1-0.1,2.2-0.2,3.3c0,0.8-0.1,1.6-0.1,2.5
		c-6.4-2.5-11-7-14.1-13.2c-2.8-7.3-4.7-15.5-2.2-23.2c3.1-6.4,6.7-10.8,13.2-14c1-0.5,2.1-1,3.1-1.6
		C339.4,301.6,339.4,301.6,343.4,301.6z"/>
	<path class="st22" d="M343.4,301.6c0.2,0.8,0.5,1.6,0.7,2.4c1.8,5.6,3.2,10.1,7.3,14.6c0,1,0,2,0,3c-1.5-0.5-2.9-0.9-4.4-1.4
		c-0.8-0.3-1.6-0.5-2.5-0.8c-2.1-0.8-2.1-0.8-4.1-2.8c-3.7,0.1-5.7,0.8-8.7,2.9c-5.3,7.2-5.8,16.4-6.3,25.1
		c-4.7-4.1-5.6-9.9-6.3-15.8c-0.3-8.8,2.5-14.7,8.3-21.2c2.9-1.8,2.9-1.8,6-3.3c1-0.5,2.1-1,3.1-1.6
		C339.4,301.6,339.4,301.6,343.4,301.6z"/>
	<path class="st23" d="M437,297.4c10.4,3.7,21.4,10.5,27.4,20.2c0.4,3.5,0.4,3.5,0,6c-3-1.3-5-2.8-7.2-5.2
		c-11.4-11.5-26-16.4-41.9-16.7c-1,0-1.9,0-2.9,0C416.1,293.4,429.4,295.7,437,297.4z"/>
	<path class="st24" d="M485.4,344.6c3,0.5,3,0.5,6,1c1.5,5.3,2,10.6,1,16c-1.7,2.4-3.6,4.1-5.9,6.1c-5.8,5.2-7.4,10.8-7.9,18.5
		c-0.1,2.1-0.2,4.3-0.2,6.4c-0.7,0-1.3,0-2,0C475,376.6,479.7,359.5,485.4,344.6z"/>
	<path class="st25" d="M384.4,356.6c0.3,0,0.7,0,1,0c1,14.3-3.5,26.5-9.2,39.3c-2.2,4.9-3.6,9.5-4.8,14.7c-1.5,3-1.5,3-3,5
		c-0.7,0-1.3,0-2,0c-0.3,2-0.7,4-1,6c-0.3,0-0.7,0-1,0c0.4-9.9,2.9-17.6,7.1-26.5C377.3,382.5,381.8,370.3,384.4,356.6z"/>
	<path class="st26" d="M392.4,285.6c-0.4,6.1-3.2,9.8-7.8,12.7c-3,1.8-5,2-7.9,1.6c-1.6-0.2-3.4-0.3-4.7-1.3
		c-0.6-0.4-0.8-0.6-1.5-1.5c-0.1-0.2-0.1-0.6-0.1-0.6l0,0c0.1-2.3,1.6-4.3,3.8-5.1c0.8-0.3,1.6-0.5,3.4-0.9
		C383.2,289,387.3,286.2,392.4,285.6z"/>
	<path class="st27" d="M404.4,299.6c-2.9,7.2-9.3,10.9-16.1,13.9c-6,2.3-11.6,2.4-17.9,2.1c-0.3-1.3-0.7-2.6-1-4
		c1-0.2,2-0.3,3.1-0.5C382.5,309.5,396.3,299.6,404.4,299.6z"/>
	<circle class="st28" cx="311.8" cy="411.1" r="9.4"/>
	<circle class="st28" cx="509.4" cy="200.1" r="9.4"/>
	<circle class="st28" cx="539.6" cy="202.9" r="9.4"/>
	<circle class="st28" cx="567" cy="212.3" r="9.4"/>
	<circle class="st28" cx="313.7" cy="445.3" r="9.4"/>
</g>
<g>
	<path class="st29" d="M772.2,770.5l-14.3,16.7l0,26.7c-6.6,0-13.5,0-20.3,0c0-35,0-71.3,0-107.3c6.6,0,13.2,0,20,0
		c0,6.2,0,13.6,0.1,19.8c0,2.1,0,4.2,0,6.3c0,3,0,6,0,9.1c0,0.9,0,1.9,0,2.8l0,12.3l22.5-26.1c2.8-3.4,5.7-6.8,8.5-10.2
		c0.5-0.6,1-1.1,1.5-1.7c1-1.1,1.9-2.2,2.9-3.3s1.9-2.2,2.8-3.3c2.8-3.3,4.8-5.2,9.2-5.7c1.7-0.1,5-0.1,5-0.1h2.5l10.7,0.1l3.5,0
		l-22.6,26.8c0,0-12.9,14.8-19.2,22.1l6,7l3.1,3.6l6.2,7.3l16.9,19.9l14.9,17.4l2.8,3.3l-25.9,0L799,801.9l-8.9-10.3"/>
	<path class="st29" d="M272.5,733c0.2,0.5,0.5,1.4,0.8,2.7c0.8,3.5,1.1,6.7,1.1,10.4c0,0.8,0,1.7,0,2.6c-0.2,9.1-1.8,16.3-7.3,23
		c-1.2,1.5-2.6,2.9-4.1,4.1c-8.5,6.9-18.3,9.2-29.4,9.2c-0.7,0-1.4,0-2.1,0c-2.2,0-4.4,0-6.7,0c-1.5,0-3,0-4.5,0h-11.1v29h-20l0-47
		c23.4-0.3,23.4-0.3,30.8-0.4c1.9,0,3.9-0.1,5.8-0.1c1,0,2,0,3,0c2.2-0.1,4.3-0.2,6.3-0.4c10.7-1.3,18.7-10.5,18.4-21.3l0-0.5
		c0,0,0,0,0,0c-0.5-4.7-1.8-8.1-5.4-11.3c-6.5-4.8-11.3-4.9-20-5h-8.4l-5.4,0c-2.9,0-5.2,2.3-5.2,5.1v18.8h-19.8
		c-0.1,0-0.2-0.1-0.2-0.2c0,0,0.1-30,0.1-44.9l19.9,0l6.8,0c0,0,6.5,0,9.8,0c1,0,2,0,3,0c5.6,0,11,0.9,16.4,2.1
		c13.9,3,21.4,11.9,27,22.8"/>
	<path class="st29" d="M489.8,706.6l21.5,0l7.7,16.9l3.7,8.1l7.5,16.4l3.2,6.9l1.3,2.9l7.5,16.3l8.3-17.8l9.7-21.6l2.3-5l10.6-23.1
		h21.5l-5.5,12.3l-1.4,2.9l-1.7,3.8l-2.1,4.6l-15.4,33.6L558.1,786l-4.2,9.7l-2.1,4.7l-3.2,6.9l-0.9,2l-2,4.7l-6.7,0l-29.1-63
		c-4.1-9.5-8.4-18.8-12.6-28.3l-1.5-3.4C492.8,713.3,492.7,712.6,489.8,706.6z"/>
	<path class="st29" d="M670.7,814.1c-6.6,0-13.2,0-20,0c0-2.9,0.1-5.9,0.1-8.9c0-2.9,0-5.8,0-8.7c0-2,0-4,0-6
		c0.2-11.9,0.7-16.4-4.7-23l-9.6-16.1l-1.7-3l-1.8-3l-3.9-6.5l-2.5-4.1l-5-8.4l-2-3.3c0,0-2.2-3.7-3.3-5.7l-1.6-2.4l-1.4-2.2
		l-3.7-6.1h22.8l3.9,6.5l12.2,20.4l1.7,2.8l1.6,2.7l1.6,2.6l3.8,6.4l3.3,5.7l6-9.8l10.4-17.9l6.2-9.9l5.5-9.5l4.1,0h3h3.1h3.2h9.3
		l-5.7,9.5l-1.5,2.4l-1.5,2.5l-1.6,2.7l-22,36.8c-2.8,4.3-6,9.1-7,14.2l-1,5.5"/>
	<path class="st29" d="M488.9,742.7c-0.3-0.9-0.7-1.7-1-2.5c0-0.1-0.1-0.2-0.1-0.2c-4.2-10.1-10.9-19-19.5-25.8
		c-10.3-8-18.7-7.4-67.4-7.4c0,36.4,0,71.1-0.1,106.4c13.5,0,27,1,40.3-0.4c9.2-1,18.1-3.9,25.8-9c3.1-2,5.9-4.4,8.5-7
		c8.1-8.1,13.2-18.8,15.2-30.1C492,758.8,491.7,750.6,488.9,742.7z M470.1,766.1c-0.4,4.3-1.9,7.5-4.2,11.1
		c-0.5,0.9-0.5,0.9-1.1,1.9c-2,3.2-4.7,5.9-7.8,8.1c-5,3.5-11,5.3-17.1,5.7c-6.6,0.4-13.3,0.3-20,0.3v-67c25.6,0,30.6,0,36.9,4.7
		c4.8,3.6,8.7,8.3,10.9,13.9C470.3,751.3,470.5,758.2,470.1,766.1z"/>
	<polygon class="st29" points="269,813.9 323.1,707 381.7,813.9 358.1,814 347.7,793.5 316.6,793.5 316.6,774.9 337.4,774.9 
		323.9,745.7 289.7,813.9 	"/>
	<path class="st30" d="M617,834.3"/>
	<path class="st30" d="M685.8,683.8"/>
	<path class="st30" d="M644.6,821.5"/>
	<path class="st30" d="M591.4,705.1"/>
	<path class="st30" d="M628,832.1"/>
	<path class="st30" d="M559.5,682.4"/>
</g>
</svg>
