<?xml version="1.0" encoding="utf-8"?>
<!-- Generator: Adobe Illustrator 25.4.1, SVG Export Plug-In . SVG Version: 6.00 Build 0)  -->
<svg version="1.1" id="Layer_1" xmlns="http://www.w3.org/2000/svg" xmlns:xlink="http://www.w3.org/1999/xlink" x="0px" y="0px"
	 viewBox="0 0 864 577" style="enable-background:new 0 0 864 577;" xml:space="preserve">
<g transform="translate(0.000000,577.000000) scale(0.100000,-0.100000)">
	<path d="M4244.9,5074c-322-57-496-154-553-307l-20-52l-77-6c-62-6-93-15-159-47c-103-52-149-90-198-166c-107-165-103-395,8-541
		c37-47,107-105,129-105c8,0,14,24,17,69c9,126,66,179,179,166c125-15,263-115,316-231c22-48,25-65,20-114c-9-83-41-159-107-258
		c-97-145-266-290-417-357l-52-23l17-44c23-58,30-67,85-111c56-45,77-82,77-134c0-64,10-71,72-50c200,70,368,226,473,440
		c65,132,86,223,94,402l6,150l27-40c60-88,87-231,69-361c-35-249-165-444-454-683c-43-35-76-69-74-75c2-7,50-14,117-18
		c62-4,134-14,158-23c58-19,204-19,297,0c181,38,356,174,445,347c50,97,58,96,59-12c1-90-33-232-70-297l-30-55l33,7
		c104,21,305,152,422,276c73,77,96,112,142,203c65,132,76,184,72,333c-1,61,0,115,4,118c4,4,14-5,24-20c15-23,155-145,167-145
		c14,0,29,238,22,355c-8,155-22,236-65,370c-60,188-104,274-217,423c-36,48-60,88-54,90c26,9,121,90,197,169c81,84,145,181,183,279
		l19,50l-101-24c-67-15-147-25-232-29c-123-5-141-3-335,35c-113,23-243,46-290,52C4572.9,5094,4340.9,5091,4244.9,5074z
		 M4772.9,4909c62-11,155-29,207-41c60-13,150-23,242-27l147-6l-57-42c-93-69-168-101-278-118c-54-9-110-18-122-21l-24-5l24-18
		c12-10,37-26,55-35c38-19,176-159,233-235c122-165,220-464,220-670v-86l-30,47c-37,59-185,203-252,245c-48,30-160,81-218,98
		c-20,6-15-3,29-51c131-143,179-236,217-424c52-254,19-417-116-578c-30-36-69-74-85-83l-30-18v122c-1,172-38,295-128,427
		c-35,50-96,120-106,120c-3,0-5-66-3-146c3-126,1-155-18-217c-68-224-220-375-439-436c-41-11-77-18-80-16c-2,3,5,18,17,33
		c46,58,140,199,161,239c30,59,71,225,78,313c7,94-15,227-58,345c-38,105-87,162-258,300c-119,95-172,145-155,145c6,0,14-4,20-8
		c5-5,25-15,44-22c48-18,293-131,414-191c173-86,180-61,25,99c-101,105-173,150-343,217c-147,58-239,81-381,96c-175,19-289-6-359-80
		c-17-17-34-31-39-31c-6,0-8,37-5,88c3,65,10,98,28,132c60,116,139,174,262,190c40,5,78,10,85,10s24-25,39-55c42-89,123-169,218-215
		c105-50,178-64,289-56c104,7,158,28,219,84c54,50,87,114,101,197l11,63l78,53c43,29,78,58,78,64c0,16-39,24-160,31
		c-143,10-235-7-470-87c-113-38-210-69-216-69c-17,0-44,68-44,110c0,83,107,158,295,205c55,14,138,30,185,35
		C4437.9,4942,4638.9,4933,4772.9,4909z M4415.9,4548c-8-46-32-97-55-116c-80-63-221-54-289,20l-23,25l31,27l32,26l29-24
		c37-32,63-39,104-32c37,7,95,55,95,79c0,26,27,45,55,39C4419.9,4588,4421.9,4585,4415.9,4548z"/>
	<path d="M3590.9,4491c-22-14-4-59,32-81c38-24,70-26,87-5C3747.9,4450,3644.9,4525,3590.9,4491z"/>
	<path d="M483.9,4934c3-11,15-60,26-109c10-50,31-125,44-167c30-91,131-297,155-315c55-41,554-130,1331-238c240-33,783-100,868-107
		l42-4v55c0,30,5,83,11,118s9,66,6,69c-2,3-87,25-188,49s-254,64-339,89c-85,24-306,88-490,141s-432,126-550,162
		c-370,112-429,129-665,198c-126,37-236,70-244,73C481.9,4952,478.9,4947,483.9,4934z"/>
	<path d="M8259.9,4908c-58-16-168-49-245-73s-221-66-320-94c-99-27-199-57-223-65c-23-8-102-32-175-51c-73-20-197-56-277-80
		c-281-84-827-235-1021-281l-195-47l8-61c5-33,6-87,3-119l-6-57l38,5c21,3,216,28,433,55s469,61,560,74c91,14,244,37,340,51
		c96,13,213,31,260,39s135,22,195,31c113,16,382,80,490,115c33,11,66,29,72,39c7,11,44,98,82,193c73,183,120,360,94,357
		C8367.9,4939,8317.9,4925,8259.9,4908z"/>
	<path d="M799.9,4003c0-4,24-58,54-118c89-181,190-296,320-367l61-33l175-3c199-4,602,20,825,49c161,21,487,53,651,64l101,7l-18,60
		c-11,33-19,86-19,119c0,49-3,59-17,59c-60,0-412,22-483,30c-47,6-164,19-260,30s-256,27-355,35c-99,9-277,24-395,35
		c-118,10-269,21-335,25c-66,3-162,8-212,11C839.9,4010,799.9,4008,799.9,4003z"/>
	<path d="M7829.9,3999c-63-4-207-17-320-28s-275-25-360-31s-294-24-465-40c-513-49-758-70-803-70h-42v-47c0-27-4-75-10-107
		c-5-33-8-61-7-62c2-2,86-8,187-14c102-6,295-22,430-36c523-53,1003-83,1136-71c199,19,368,172,479,435l34,82l-72-1
		C7976.9,4008,7892.9,4004,7829.9,3999z"/>
	<path d="M2824.9,3439c-77-16-196-38-265-49s-204-34-300-50c-174-30-618-90-820-111c-58-6-106-12-108-14c-8-7,93-127,165-196
		c91-87,157-128,263-162c157-51,210-46,384,35c236,110,886,457,886,473c0,10-54,105-59,104C2967.9,3469,2901.9,3455,2824.9,3439z"/>
	<path d="M5819.9,3457c0-7-9-30-19-50l-19-38l91-46c51-25,121-62,157-83s184-94,330-163s294-140,329-157c98-48,233-90,288-90
		s185,31,251,61c109,47,273,184,341,283c17,24,31,47,31,49c0,7-138,25-420,53c-312,31-384,41-855,120c-137,23-479,74-497,74
		C5822.9,3470,5819.9,3464,5819.9,3457z"/>
	<path d="M5689.9,3158c-19-34-64-92-99-130s-62-71-59-73c2-2,35-22,73-43c39-21,147-82,242-135c94-54,191-105,215-113
		c35-14,84-16,278-16c129,1,262,5,295,9l60,8l-130,77c-72,42-218,126-325,186c-107,61-240,136-295,168s-127,73-160,90l-60,32
		L5689.9,3158z"/>
	<path d="M3013.9,3162c-33-21-104-65-157-99c-177-115-475-292-572-340c-83-42-92-49-73-56c13-5,142-11,288-14l266-6l105,45
		c58,25,168,80,245,123c76,43,158,88,181,101c39,20,41,23,25,37c-9,8-31,22-48,30c-42,21-134,123-159,175c-11,23-24,41-30,41
		C3079.9,3198,3047.9,3182,3013.9,3162z"/>
</g>
<g>
	<path d="M703.3,426.3L689,443v26.7c-6.6,0-13.5,0-20.3,0c0-35,0-71.3,0-107.3c6.6,0,13.2,0,20,0c0,6.2,0,13.6,0.1,19.8
		c0,2.1,0,4.2,0,6.3c0,3,0,6,0,9.1c0,0.9,0,1.9,0,2.8v12.3l22.5-26.1c2.8-3.4,5.7-6.8,8.5-10.2c0.5-0.6,1-1.1,1.5-1.7
		c1-1.1,1.9-2.2,2.9-3.3s1.9-2.2,2.8-3.3c2.8-3.3,4.8-5.2,9.2-5.7c1.7-0.1,5-0.1,5-0.1h2.5l10.7,0.1h3.5l-22.6,26.8
		c0,0-12.9,14.8-19.2,22.1l6,7l3.1,3.6l6.2,7.3l16.9,19.9l14.9,17.4l2.8,3.3h-25.9l-10-12.1l-8.9-10.3"/>
	<path d="M203.6,388.8c0.2,0.5,0.5,1.4,0.8,2.7c0.8,3.5,1.1,6.7,1.1,10.4c0,0.8,0,1.7,0,2.6c-0.2,9.1-1.8,16.3-7.3,23
		c-1.2,1.5-2.6,2.9-4.1,4.1c-8.5,6.9-18.3,9.2-29.4,9.2c-0.7,0-1.4,0-2.1,0c-2.2,0-4.4,0-6.7,0c-1.5,0-3,0-4.5,0h-11.1v29h-20v-47
		c23.4-0.3,23.4-0.3,30.8-0.4c1.9,0,3.9-0.1,5.8-0.1c1,0,2,0,3,0c2.2-0.1,4.3-0.2,6.3-0.4c10.7-1.3,18.7-10.5,18.4-21.3v-0.5l0,0
		c-0.5-4.7-1.8-8.1-5.4-11.3c-6.5-4.8-11.3-4.9-20-5h-8.4h-5.4c-2.9,0-5.2,2.3-5.2,5.1v18.8h-19.8c-0.1,0-0.2-0.1-0.2-0.2
		c0,0,0.1-30,0.1-44.9h19.9h6.8c0,0,6.5,0,9.8,0c1,0,2,0,3,0c5.6,0,11,0.9,16.4,2.1c13.9,3,21.4,11.9,27,22.8"/>
	<path d="M420.9,362.4h21.5l7.7,16.9l3.7,8.1l7.5,16.4l3.2,6.9l1.3,2.9l7.5,16.3l8.3-17.8l9.7-21.6l2.3-5l10.6-23.1h21.5l-5.5,12.3
		l-1.4,2.9l-1.7,3.8l-2.1,4.6l-15.4,33.6l-10.4,22.2l-4.2,9.7l-2.1,4.7l-3.2,6.9l-0.9,2l-2,4.7h-6.7l-29.1-63
		c-4.1-9.5-8.4-18.8-12.6-28.3l-1.5-3.4C423.9,369.1,423.8,368.4,420.9,362.4z"/>
	<path d="M601.8,469.9c-6.6,0-13.2,0-20,0c0-2.9,0.1-5.9,0.1-8.9c0-2.9,0-5.8,0-8.7c0-2,0-4,0-6c0.2-11.9,0.7-16.4-4.7-23l-9.6-16.1
		l-1.7-3l-1.8-3l-3.9-6.5l-2.5-4.1l-5-8.4l-2-3.3c0,0-2.2-3.7-3.3-5.7l-1.6-2.4l-1.4-2.2l-3.7-6.1h22.8l3.9,6.5l12.2,20.4l1.7,2.8
		l1.6,2.7l1.6,2.6l3.8,6.4l3.3,5.7l6-9.8l10.4-17.9l6.2-9.9l5.5-9.5h4.1h3h3.1h3.2h9.3l-5.7,9.5l-1.5,2.4l-1.5,2.5l-1.6,2.7
		l-22,36.8c-2.8,4.3-6,9.1-7,14.2l-1,5.5"/>
	<path d="M420,398.5c-0.3-0.9-0.7-1.7-1-2.5c0-0.1-0.1-0.2-0.1-0.2c-4.2-10.1-10.9-19-19.5-25.8c-10.3-8-18.7-7.4-67.4-7.4
		c0,36.4,0,71.1-0.1,106.4c13.5,0,27,1,40.3-0.4c9.2-1,18.1-3.9,25.8-9c3.1-2,5.9-4.4,8.5-7c8.1-8.1,13.2-18.8,15.2-30.1
		C423.1,414.6,422.8,406.4,420,398.5z M401.2,421.9c-0.4,4.3-1.9,7.5-4.2,11.1c-0.5,0.9-0.5,0.9-1.1,1.9c-2,3.2-4.7,5.9-7.8,8.1
		c-5,3.5-11,5.3-17.1,5.7c-6.6,0.4-13.3,0.3-20,0.3v-67c25.6,0,30.6,0,36.9,4.7c4.8,3.6,8.7,8.3,10.9,13.9
		C401.4,407.1,401.6,414,401.2,421.9z"/>
	<polygon points="200.1,469.7 254.2,362.8 312.8,469.7 289.2,469.8 278.8,449.3 247.7,449.3 247.7,430.7 268.5,430.7 255,401.5 
		220.8,469.7 	"/>
	<path d="M548.1,490.1"/>
	<path d="M616.9,339.6"/>
	<path d="M575.7,477.3"/>
	<path d="M522.5,360.9"/>
	<path d="M559.1,487.9"/>
	<path d="M490.6,338.2"/>
</g>
</svg>
